<svg xmlns="http://www.w3.org/2000/svg" width="1600" height="1040" viewBox="0 0 1600 1040" role="img" aria-labelledby="title desc">
  <title id="title">Domain randomization has three independent design axes</title>
  <desc id="desc">A fixed robot task is evaluated in multiple environments sampled as xi from a domain distribution p phi. The first axis asks what changes and lists six parameter families: rendering and appearance, cameras and sensors, geometry and kinematics, physics contact and numerics, actuation control and timing, and disturbances and system variation. The second axis asks how the distribution is chosen, from static manual through measurement-informed, automatic, adaptive, and adversarial methods. The third axis asks when values are sampled: build, episode, step, or event time. Teal labels identify the subset practiced in lesson 11: color, camera field of view and world-camera pose, friction, and mass, using static manual distributions at build and episode time.</desc>
  <defs>
    <marker id="arrow" viewBox="0 0 10 10" refX="8" refY="5" markerWidth="7" markerHeight="7" orient="auto-start-reverse">
      <path d="M 0 0 L 10 5 L 0 10 z" fill="#64748b"/>
    </marker>
    <style>
      .title { font: 700 30px Inter, ui-sans-serif, system-ui, sans-serif; fill: #0f172a; }
      .subtitle { font: 400 16px Inter, ui-sans-serif, system-ui, sans-serif; fill: #475569; }
      .axis { font: 700 20px Inter, ui-sans-serif, system-ui, sans-serif; fill: #0f172a; }
      .heading { font: 700 16px Inter, ui-sans-serif, system-ui, sans-serif; fill: #0f172a; }
      .body { font: 400 13px Inter, ui-sans-serif, system-ui, sans-serif; fill: #334155; }
      .small { font: 500 12px Inter, ui-sans-serif, system-ui, sans-serif; fill: #475569; }
      .tiny { font: 600 11px Inter, ui-sans-serif, system-ui, sans-serif; fill: #0f766e; }
      .code { font: 600 15px ui-monospace, SFMono-Regular, Menlo, monospace; fill: #1e293b; }
      .codeSmall { font: 600 12px ui-monospace, SFMono-Regular, Menlo, monospace; fill: #334155; }
      .flow { stroke: #64748b; stroke-width: 2.2; fill: none; marker-end: url(#arrow); }
      .dash { stroke: #94a3b8; stroke-width: 1.5; stroke-dasharray: 6 5; fill: none; }
    </style>
  </defs>

  <rect width="1600" height="1040" rx="24" fill="#f8fafc"/>
  <text x="800" y="44" text-anchor="middle" class="title">Domain randomization: three independent design axes</text>
  <text x="800" y="74" text-anchor="middle" class="subtitle">Keep the task meaning fixed; sample the environment domain deliberately and record what happened.</text>

  <rect x="40" y="104" width="1520" height="222" rx="20" fill="#ffffff" stroke="#cbd5e1" stroke-width="1.6"/>
  <text x="65" y="136" class="axis">Core idea · one task, a distribution of environments</text>

  <rect x="75" y="169" width="250" height="105" rx="15" fill="#fefce8" stroke="#facc15" stroke-width="1.8"/>
  <text x="200" y="199" text-anchor="middle" class="heading">Fixed task semantics</text>
  <text x="200" y="225" text-anchor="middle" class="body">same goal · observations · actions</text>
  <text x="200" y="249" text-anchor="middle" class="body">same success meaning</text>

  <path d="M325 221 H405" class="flow"/>
  <rect x="420" y="159" width="270" height="126" rx="63" fill="#ede9fe" stroke="#8b5cf6" stroke-width="2"/>
  <text x="555" y="199" text-anchor="middle" class="heading">Domain distribution</text>
  <text x="555" y="231" text-anchor="middle" class="code">xi ~ p_phi(xi)</text>
  <text x="555" y="258" text-anchor="middle" class="small">bounded modeling choice</text>
  <path d="M690 221 H760" class="flow"/>

  <rect x="775" y="159" width="220" height="126" rx="15" fill="#ecfeff" stroke="#22d3ee" stroke-width="1.8"/>
  <text x="885" y="192" text-anchor="middle" class="heading">Domain xi_0</text>
  <text x="885" y="220" text-anchor="middle" class="body">camera · appearance</text>
  <text x="885" y="245" text-anchor="middle" class="body">contact · mass · ...</text>
  <text x="885" y="269" text-anchor="middle" class="small">one concrete environment</text>

  <rect x="1015" y="159" width="220" height="126" rx="15" fill="#f0fdfa" stroke="#2dd4bf" stroke-width="1.8"/>
  <text x="1125" y="192" text-anchor="middle" class="heading">Domain xi_1</text>
  <text x="1125" y="220" text-anchor="middle" class="body">different valid draw</text>
  <text x="1125" y="245" text-anchor="middle" class="body">same qualitative task</text>
  <text x="1125" y="269" text-anchor="middle" class="small">another environment</text>

  <rect x="1255" y="159" width="260" height="126" rx="15" fill="#f8fafc" stroke="#94a3b8" stroke-width="1.8"/>
  <text x="1385" y="192" text-anchor="middle" class="heading">Domain xi_2 ... xi_n</text>
  <text x="1385" y="220" text-anchor="middle" class="body">coverage depends on p_phi</text>
  <text x="1385" y="245" text-anchor="middle" class="body">not on seed count alone</text>
  <text x="1385" y="269" text-anchor="middle" class="small">the real system is not guaranteed inside</text>

  <path d="M760 221 C748 221 748 141 775 141 H1385 V159" class="dash"/>

  <rect x="40" y="350" width="810" height="625" rx="20" fill="#ffffff" stroke="#cbd5e1" stroke-width="1.6"/>
  <text x="65" y="385" class="axis">1 · WHAT changes?</text>
  <text x="65" y="410" class="subtitle">Six parameter families; categories may overlap.</text>

  <rect x="65" y="438" width="365" height="142" rx="14" fill="#ecfeff" stroke="#22d3ee" stroke-width="1.8"/>
  <text x="85" y="469" class="heading">Rendering &amp; appearance</text>
  <text x="85" y="496" class="body">color · texture · material · lighting</text>
  <text x="85" y="520" class="body">background · clutter · distractors</text>
  <rect x="85" y="540" width="299" height="25" rx="12" fill="#ccfbf1"/>
  <text x="234" y="557" text-anchor="middle" class="tiny">L11: table + constrained object color</text>

  <rect x="455" y="438" width="370" height="142" rx="14" fill="#ecfeff" stroke="#22d3ee" stroke-width="1.8"/>
  <text x="475" y="469" class="heading">Cameras &amp; sensors</text>
  <text x="475" y="496" class="body">intrinsics · extrinsics · noise · bias</text>
  <text x="475" y="520" class="body">dropout · distortion · latency</text>
  <rect x="475" y="540" width="320" height="25" rx="12" fill="#ccfbf1"/>
  <text x="635" y="557" text-anchor="middle" class="tiny">L11: FOV + world-camera pos/lookat</text>

  <rect x="65" y="603" width="365" height="142" rx="14" fill="#f8fafc" stroke="#94a3b8" stroke-width="1.5"/>
  <text x="85" y="634" class="heading">Geometry &amp; kinematics</text>
  <text x="85" y="661" class="body">shape · scale · collision geometry</text>
  <text x="85" y="685" class="body">link length · joint zero · mount tolerance</text>
  <rect x="85" y="705" width="132" height="25" rx="12" fill="#e2e8f0"/>
  <text x="151" y="722" text-anchor="middle" class="small">not in L11 lab</text>

  <rect x="455" y="603" width="370" height="142" rx="14" fill="#ecfeff" stroke="#22d3ee" stroke-width="1.8"/>
  <text x="475" y="634" class="heading">Physics, contact &amp; numerics</text>
  <text x="475" y="661" class="body">mass · inertia · friction · restitution</text>
  <text x="475" y="685" class="body">damping · gravity · solver · timestep</text>
  <rect x="475" y="705" width="208" height="25" rx="12" fill="#ccfbf1"/>
  <text x="579" y="722" text-anchor="middle" class="tiny">L11: friction + mass</text>

  <rect x="65" y="768" width="365" height="142" rx="14" fill="#f8fafc" stroke="#94a3b8" stroke-width="1.5"/>
  <text x="85" y="799" class="heading">Actuation, control &amp; timing</text>
  <text x="85" y="826" class="body">motor strength · gains · limits · backlash</text>
  <text x="85" y="850" class="body">action noise · delay · control rate</text>
  <rect x="85" y="870" width="132" height="25" rx="12" fill="#e2e8f0"/>
  <text x="151" y="887" text-anchor="middle" class="small">not in L11 lab</text>

  <rect x="455" y="768" width="370" height="142" rx="14" fill="#f8fafc" stroke="#94a3b8" stroke-width="1.5"/>
  <text x="475" y="799" class="heading">Disturbances &amp; system variation</text>
  <text x="475" y="826" class="body">external force · impact · payload · wear</text>
  <text x="475" y="850" class="body">terrain · damage · communication jitter</text>
  <rect x="475" y="870" width="132" height="25" rx="12" fill="#e2e8f0"/>
  <text x="541" y="887" text-anchor="middle" class="small">not in L11 lab</text>

  <rect x="875" y="350" width="330" height="625" rx="20" fill="#ffffff" stroke="#cbd5e1" stroke-width="1.6"/>
  <text x="900" y="385" class="axis">2 · HOW chosen?</text>
  <text x="900" y="410" class="subtitle">How p_phi is set or updated.</text>

  <rect x="900" y="440" width="280" height="82" rx="13" fill="#ecfeff" stroke="#22d3ee" stroke-width="1.8"/>
  <text x="1040" y="471" text-anchor="middle" class="heading">Static / manual</text>
  <text x="1040" y="496" text-anchor="middle" class="tiny">IMPLEMENTED · fixed bounded ranges</text>

  <rect x="900" y="540" width="280" height="82" rx="13" fill="#f8fafc" stroke="#94a3b8"/>
  <text x="1040" y="571" text-anchor="middle" class="heading">Measurement-informed</text>
  <text x="1040" y="596" text-anchor="middle" class="small">specifications · system ID · posterior</text>

  <rect x="900" y="640" width="280" height="82" rx="13" fill="#f8fafc" stroke="#94a3b8"/>
  <text x="1040" y="671" text-anchor="middle" class="heading">Curriculum / ADR</text>
  <text x="1040" y="696" text-anchor="middle" class="small">performance updates distribution bounds</text>

  <rect x="900" y="740" width="280" height="82" rx="13" fill="#f8fafc" stroke="#94a3b8"/>
  <text x="1040" y="771" text-anchor="middle" class="heading">Adaptive</text>
  <text x="1040" y="796" text-anchor="middle" class="small">target feedback updates p_phi</text>

  <rect x="900" y="840" width="280" height="82" rx="13" fill="#f8fafc" stroke="#94a3b8"/>
  <text x="1040" y="871" text-anchor="middle" class="heading">Adversarial / active</text>
  <text x="1040" y="896" text-anchor="middle" class="small">seek hard or informative valid domains</text>

  <rect x="1230" y="350" width="330" height="625" rx="20" fill="#ffffff" stroke="#cbd5e1" stroke-width="1.6"/>
  <text x="1255" y="385" class="axis">3 · WHEN sampled?</text>
  <text x="1255" y="410" class="subtitle">Match lifetime to physical meaning.</text>

  <rect x="1255" y="440" width="280" height="105" rx="13" fill="#ecfeff" stroke="#22d3ee" stroke-width="1.8"/>
  <text x="1395" y="471" text-anchor="middle" class="heading">Build time</text>
  <text x="1395" y="496" text-anchor="middle" class="body">scene structure · material · FOV</text>
  <text x="1395" y="522" text-anchor="middle" class="tiny">L11 LAYER A</text>

  <path d="M1395 545 V575" class="flow"/>
  <rect x="1255" y="586" width="280" height="105" rx="13" fill="#ecfeff" stroke="#22d3ee" stroke-width="1.8"/>
  <text x="1395" y="617" text-anchor="middle" class="heading">Episode / reset time</text>
  <text x="1395" y="642" text-anchor="middle" class="body">friction · mass · fixed camera offset</text>
  <text x="1395" y="668" text-anchor="middle" class="tiny">L11 LAYER B</text>

  <path d="M1395 691 V721" class="flow"/>
  <rect x="1255" y="732" width="280" height="82" rx="13" fill="#f8fafc" stroke="#94a3b8"/>
  <text x="1395" y="763" text-anchor="middle" class="heading">Step time</text>
  <text x="1395" y="788" text-anchor="middle" class="small">noise · jitter · external disturbance</text>

  <path d="M1395 814 V844" class="flow"/>
  <rect x="1255" y="855" width="280" height="67" rx="13" fill="#f8fafc" stroke="#94a3b8"/>
  <text x="1395" y="883" text-anchor="middle" class="heading">Event time</text>
  <text x="1395" y="906" text-anchor="middle" class="small">declared trigger or fault</text>

  <rect x="40" y="995" width="20" height="20" rx="5" fill="#ecfeff" stroke="#22d3ee" stroke-width="1.5"/>
  <text x="72" y="1010" class="small">teal = practiced in L11</text>
  <rect x="235" y="995" width="20" height="20" rx="5" fill="#f8fafc" stroke="#94a3b8"/>
  <text x="267" y="1010" class="small">gray = conceptual coverage only</text>
  <text x="1560" y="1010" text-anchor="end" class="small">These axes are independent; Layer A/B are repository lifecycle labels, not a field-wide taxonomy.</text>
</svg>
